<svg xmlns="http://www.w3.org/2000/svg" viewBox="0 0 64 64" width="64" height="64">
  <rect width="64" height="64" rx="14" fill="#16171d"/>
  <!-- Rainbow arc ring: r=24, C=150.80, each arc=25.13, gap=125.66 -->
  <circle cx="32" cy="32" r="24" fill="none" stroke="#00d4ff" stroke-width="8" stroke-linecap="round" stroke-dasharray="25.13 125.66" stroke-dashoffset="0" transform="rotate(-90 32 32)"/>
  <circle cx="32" cy="32" r="24" fill="none" stroke="#ffd700" stroke-width="8" stroke-linecap="round" stroke-dasharray="25.13 125.66" stroke-dashoffset="-25.13" transform="rotate(-90 32 32)"/>
  <circle cx="32" cy="32" r="24" fill="none" stroke="#7fd400" stroke-width="8" stroke-linecap="round" stroke-dasharray="25.13 125.66" stroke-dashoffset="-50.27" transform="rotate(-90 32 32)"/>
  <circle cx="32" cy="32" r="24" fill="none" stroke="#ff0080" stroke-width="8" stroke-linecap="round" stroke-dasharray="25.13 125.66" stroke-dashoffset="-75.40" transform="rotate(-90 32 32)"/>
  <circle cx="32" cy="32" r="24" fill="none" stroke="#bf00ff" stroke-width="8" stroke-linecap="round" stroke-dasharray="25.13 125.66" stroke-dashoffset="-100.53" transform="rotate(-90 32 32)"/>
  <circle cx="32" cy="32" r="24" fill="none" stroke="#00eaff" stroke-width="8" stroke-linecap="round" stroke-dasharray="25.13 125.66" stroke-dashoffset="-125.66" transform="rotate(-90 32 32)"/>
  <!-- Tire -->
  <circle cx="32" cy="32" r="20.5" fill="#090910"/>
  <!-- Rim -->
  <circle cx="32" cy="32" r="15.7" fill="#0d0d1a"/>
  <!-- 5 spokes — positions scaled 1.6× from Logo (40×40 viewBox) -->
  <line x1="32" y1="32" x2="32" y2="16" stroke="#8b5cf6" stroke-width="3.5" stroke-linecap="round"/>
  <line x1="32" y1="32" x2="47.2" y2="27" stroke="#8b5cf6" stroke-width="3.5" stroke-linecap="round"/>
  <line x1="32" y1="32" x2="41.4" y2="45" stroke="#8b5cf6" stroke-width="3.5" stroke-linecap="round"/>
  <line x1="32" y1="32" x2="22.6" y2="45" stroke="#8b5cf6" stroke-width="3.5" stroke-linecap="round"/>
  <line x1="32" y1="32" x2="16.8" y2="27" stroke="#8b5cf6" stroke-width="3.5" stroke-linecap="round"/>
  <!-- Bolt holes -->
  <circle cx="32" cy="16" r="2" fill="#8b5cf6" fill-opacity="0.8"/>
  <circle cx="47.2" cy="27" r="2" fill="#8b5cf6" fill-opacity="0.8"/>
  <circle cx="41.4" cy="45" r="2" fill="#8b5cf6" fill-opacity="0.8"/>
  <circle cx="22.6" cy="45" r="2" fill="#8b5cf6" fill-opacity="0.8"/>
  <circle cx="16.8" cy="27" r="2" fill="#8b5cf6" fill-opacity="0.8"/>
  <!-- Hub -->
  <circle cx="32" cy="32" r="5" fill="#bf00ff"/>
  <circle cx="32" cy="32" r="2.5" fill="white" fill-opacity="0.7"/>
</svg>
